<svg width="233" height="233" viewBox="0 0 233 233" fill="none" xmlns="http://www.w3.org/2000/svg">
<g filter="url(#filter0_d)">
<path fill-rule="evenodd" clip-rule="evenodd" d="M116.5 131.679C135.929 131.679 151.679 115.929 151.679 96.5C151.679 77.071 135.929 61.3208 116.5 61.3208C97.071 61.3208 81.3208 77.071 81.3208 96.5C81.3208 115.929 97.071 131.679 116.5 131.679ZM116.5 153C147.704 153 173 127.704 173 96.5C173 65.2959 147.704 40 116.5 40C85.2959 40 60 65.2959 60 96.5C60 127.704 85.2959 153 116.5 153Z" fill="url(#paint0_linear)"/>
</g>
<circle cx="216" cy="40" r="8" fill="url(#paint1_linear)"/>
<defs>
<filter id="filter0_d" x="0" y="0" width="233" height="233" filterUnits="userSpaceOnUse" color-interpolation-filters="sRGB">
<feFlood flood-opacity="0" result="BackgroundImageFix"/>
<feColorMatrix in="SourceAlpha" type="matrix" values="0 0 0 0 0 0 0 0 0 0 0 0 0 0 0 0 0 0 127 0"/>
<feOffset dy="20"/>
<feGaussianBlur stdDeviation="30"/>
<feColorMatrix type="matrix" values="0 0 0 0 0.0666667 0 0 0 0 0.227451 0 0 0 0 0.588235 0 0 0 0.2 0"/>
<feBlend mode="normal" in2="BackgroundImageFix" result="effect1_dropShadow"/>
<feBlend mode="normal" in="SourceGraphic" in2="effect1_dropShadow" result="shape"/>
</filter>
<linearGradient id="paint0_linear" x1="148.336" y1="41.6618" x2="74.7684" y2="91.9498" gradientUnits="userSpaceOnUse">
<stop stop-color="#FF9C59"/>
<stop offset="1" stop-color="#FF6C08"/>
</linearGradient>
<linearGradient id="paint1_linear" x1="220.508" y1="32.2353" x2="210.091" y2="39.3557" gradientUnits="userSpaceOnUse">
<stop stop-color="#FF9C59"/>
<stop offset="1" stop-color="#FF6C08"/>
</linearGradient>
</defs>
</svg>
