<svg width="167" height="40" viewBox="0 0 167 40" fill="none" xmlns="http://www.w3.org/2000/svg">
<path fill-rule="evenodd" clip-rule="evenodd" d="M26.0612 39.0645C24.1511 39.6712 22.1117 40 20.0019 40C14.2871 40 9.13589 37.6045 5.4917 33.7606C12.3456 31.6822 19.2034 36.6298 26.0612 39.0645Z" fill="black"/>
<path fill-rule="evenodd" clip-rule="evenodd" d="M38.3169 28.0419C36.5046 32.1597 33.3458 35.5534 29.3963 37.6593C20.9258 35.9761 12.4553 28.081 3.98088 31.9835C2.56783 30.1008 1.47966 27.9558 0.80249 25.6424C13.3086 15.7902 25.8147 35.8861 38.3169 28.0419Z" fill="black"/>
<path fill-rule="evenodd" clip-rule="evenodd" d="M39.6634 16.3343C39.8826 17.5242 40 18.7494 40 20.002C40 21.7125 39.7847 23.3721 39.3815 24.9574C26.3666 34.8214 13.3516 12.6235 0.336628 23.6696C0.113514 22.4797 0 21.2545 0 20.002C0 18.2914 0.215285 16.6318 0.618456 15.0465C13.6334 5.17858 26.6484 27.3765 39.6634 16.3343Z" fill="black"/>
<path fill-rule="evenodd" clip-rule="evenodd" d="M36.0152 8.02035C37.4283 9.90311 38.5165 12.0481 39.1936 14.3654C26.6914 24.2098 14.1892 4.1139 1.68311 11.9581C3.49542 7.84029 6.65424 4.44661 10.6037 2.34073C19.0742 4.02387 27.5447 11.919 36.0152 8.02035Z" fill="black"/>
<path fill-rule="evenodd" clip-rule="evenodd" d="M20.0019 0C25.7168 0 30.868 2.39554 34.5122 6.23936C27.6543 8.31393 20.7965 3.36628 13.9387 0.935512C15.8528 0.328799 17.8882 0 20.0019 0Z" fill="black"/>
<path d="M53.3462 21.1539C53.3462 23.6231 54.1308 25.6308 55.7231 27.1769C57.3154 28.7231 59.3231 29.4846 61.7462 29.4846C64.1693 29.4846 66.177 28.7 67.7693 27.1308C69.3616 25.5616 70.1693 23.5769 70.1693 21.1539C70.1693 18.6846 69.3616 16.6769 67.7693 15.1308C66.177 13.5846 64.1693 12.8231 61.7462 12.8231C59.3 12.8231 57.2923 13.6308 55.7 15.2231C54.1308 16.8154 53.3462 18.7769 53.3462 21.1539ZM56.3462 21.1539C56.3462 19.4923 56.8539 18.1308 57.8693 17.0692C58.9077 16.0077 60.2 15.4769 61.7462 15.4769C63.2923 15.4769 64.5616 16.0077 65.6 17.0692C66.6385 18.1308 67.1693 19.4923 67.1693 21.1539C67.1693 22.7923 66.6847 24.1308 65.6923 25.2154C64.7231 26.3 63.4077 26.8308 61.7462 26.8308C60.2231 26.8308 58.9308 26.3 57.8923 25.2154C56.8539 24.1308 56.3462 22.7692 56.3462 21.1539Z" fill="black"/>
<path d="M80.2461 25.7462C79.4846 26.6 78.5846 27.0154 77.5692 27.0154C76.7615 27.0154 76.0461 26.7385 75.4461 26.2077C74.8692 25.6539 74.5692 24.9385 74.5692 24.0385C74.5692 23.1616 74.8461 22.4462 75.4231 21.9154C76 21.3616 76.6923 21.0846 77.4538 21.0846C78.4923 21.0846 79.3461 21.4308 80.0384 22.1L81.2846 20C80.3384 19.0539 78.9538 18.5923 77.1077 18.5923C75.5615 18.5923 74.2692 19.1231 73.2538 20.1616C72.2384 21.2 71.7307 22.4923 71.7307 24.0385C71.7307 25.6769 72.2384 26.9923 73.2769 27.9846C74.3154 28.9769 75.6769 29.4846 77.3615 29.4846C79.0923 29.4846 80.6384 28.8616 81.4923 27.6846L80.2461 25.7462Z" fill="black"/>
<path d="M91.2052 26.3231C90.4205 26.9462 89.4513 27.2692 88.2744 27.2692C86.6128 27.2692 85.3667 26.3923 85.159 24.8462H92.659C92.7744 24.4769 92.8205 23.9923 92.8205 23.4154C92.8205 22.0077 92.3359 20.8539 91.3898 19.9539C90.4436 19.0539 89.2667 18.5923 87.9051 18.5923C86.2436 18.5923 84.9051 19.1231 83.9128 20.1616C82.9205 21.2 82.4128 22.4923 82.4128 24.0385C82.4128 25.6769 82.9205 26.9923 83.9359 27.9846C84.9744 28.9769 86.3128 29.4846 87.9975 29.4846C89.6359 29.4846 90.9513 29.0462 91.9667 28.1923L91.2052 26.3231ZM87.7898 20.8077C89.2667 20.8077 90.1898 21.7769 90.1667 23.0692H85.0667C85.3667 21.5692 86.2898 20.8077 87.7898 20.8077Z" fill="black"/>
<path d="M95.7657 21.5231C96.8042 21.0385 97.7273 20.8077 98.4888 20.8077C99.9657 20.8077 100.496 21.6616 100.427 23.4846C99.8042 23.0462 99.0196 22.8154 98.0734 22.8154C95.858 22.8154 94.2888 23.9923 94.2888 26.1846C94.2888 28.1462 95.6042 29.3692 97.5426 29.3692C98.9503 29.3692 99.9888 28.9308 100.612 28.0308V29.2308H102.92V22.9077C102.92 20.0462 101.72 18.5923 98.7657 18.5923C97.4503 18.5923 96.2273 18.9154 95.0965 19.5846L95.7657 21.5231ZM98.4196 27.1308C97.5657 27.1308 96.9426 26.6692 96.9426 25.9077C96.9426 25.0769 97.658 24.6154 98.6042 24.6154C99.3657 24.6154 99.9888 24.7769 100.427 25.1231V26.1846C99.9888 26.8077 99.3196 27.1308 98.4196 27.1308Z" fill="black"/>
<path d="M108.294 29.2308V22.1462C108.963 21.4769 109.702 21.1539 110.556 21.1539C112.102 21.1539 112.886 21.9616 112.886 23.6V29.2308H115.54V23.1385C115.54 20.1616 114.109 18.6616 111.271 18.6616C110.048 18.6616 109.056 19.0769 108.294 19.8846V18.8462H105.64V29.2308H108.294Z" fill="black"/>
<path d="M123.89 29.2077C124.928 29.2769 126.428 29.3231 128.39 29.3231C131.99 29.3231 134.39 27.6846 134.39 24.4769C134.39 22.4231 133.236 21.1539 131.551 20.7154V20.6692C133.097 19.9539 133.859 18.7308 133.859 17C133.859 14.6 132.22 13.0077 128.551 13.0077C126.959 13.0077 125.39 13.0539 123.89 13.1231V29.2077ZM128.736 22.2846C130.513 22.2846 131.551 22.9769 131.551 24.3385C131.551 25.8846 130.559 26.6692 128.597 26.6692C127.997 26.6692 127.374 26.6231 126.728 26.5539V22.2846H128.736ZM128.505 15.6616C130.074 15.6616 131.043 16.3769 131.043 17.6692C131.043 19.0769 130.051 19.8154 128.643 19.8154H126.728V15.7308C127.236 15.6846 127.836 15.6616 128.505 15.6616Z" fill="black"/>
<path d="M137.371 26.3692C137.371 28.4231 138.179 29.4616 139.817 29.4616C140.925 29.4616 141.848 29.1616 142.563 28.5846L142.009 26.5539C141.617 26.8308 141.271 26.9692 140.925 26.9692C140.325 26.9692 140.025 26.4154 140.025 25.2846V13.0769H137.371V26.3692Z" fill="black"/>
<path d="M151.005 18.8462V25.7462C150.359 26.6 149.575 27.0154 148.675 27.0154C147.359 27.0154 146.69 26.2308 146.69 24.6385V18.8462H144.036V25.1923C144.036 28.0308 145.536 29.4846 147.682 29.4846C149.067 29.4846 150.175 28.9769 151.005 27.9616V29.2308H153.659V18.8462H151.005Z" fill="black"/>
<path d="M164.763 26.3231C163.978 26.9462 163.009 27.2692 161.832 27.2692C160.171 27.2692 158.924 26.3923 158.717 24.8462H166.217C166.332 24.4769 166.378 23.9923 166.378 23.4154C166.378 22.0077 165.894 20.8539 164.947 19.9539C164.001 19.0539 162.824 18.5923 161.463 18.5923C159.801 18.5923 158.463 19.1231 157.471 20.1616C156.478 21.2 155.971 22.4923 155.971 24.0385C155.971 25.6769 156.478 26.9923 157.494 27.9846C158.532 28.9769 159.871 29.4846 161.555 29.4846C163.194 29.4846 164.509 29.0462 165.524 28.1923L164.763 26.3231ZM161.347 20.8077C162.824 20.8077 163.747 21.7769 163.724 23.0692H158.624C158.924 21.5692 159.847 20.8077 161.347 20.8077Z" fill="black"/>
</svg>
